<?xml version="1.0" standalone="no"?>
<!DOCTYPE svg PUBLIC "-//W3C//DTD SVG 20010904//EN"
 "http://www.w3.org/TR/2001/REC-SVG-20010904/DTD/svg10.dtd">
<svg version="1.0" xmlns="http://www.w3.org/2000/svg"
 width="256.000000pt" height="129.000000pt" viewBox="0 0 256.000000 129.000000"
 preserveAspectRatio="xMidYMid meet">

<g transform="translate(0.000000,129.000000) scale(0.100000,-0.100000)"
fill="#ffffff" stroke="none">
<path d="M2055 1230 c-119 -21 -196 -41 -309 -79 -50 -17 -118 -31 -171 -36
-362 -30 -801 -220 -1024 -445 -162 -162 -174 -293 -33 -358 49 -23 73 -27
173 -30 105 -4 227 7 276 24 12 5 15 4 8 -4 -15 -16 -218 -78 -335 -103 -140
-29 -324 -32 -392 -6 -86 33 -109 96 -67 179 21 41 101 127 174 187 37 31 38
32 7 15 -67 -38 -200 -144 -258 -207 -67 -71 -104 -139 -104 -191 0 -49 50
-99 119 -120 137 -41 430 -7 682 79 49 16 96 25 139 25 330 1 845 219 1067
454 115 121 148 216 100 287 -64 95 -244 121 -499 73 -44 -8 -82 -13 -85 -11
-5 6 147 61 255 92 209 61 438 79 534 42 86 -33 109 -96 67 -179 -21 -41 -102
-128 -174 -187 -37 -30 -38 -31 -7 -14 65 35 199 142 258 206 67 71 104 139
104 191 0 49 -50 99 -119 120 -73 21 -256 20 -386 -4z m-546 -165 c-3 -2 -65
-34 -138 -70 -338 -167 -561 -369 -561 -507 0 -49 18 -75 70 -108 l35 -22 -60
7 c-74 8 -149 40 -175 73 -26 33 -26 101 0 152 66 129 307 304 550 398 123 47
297 96 279 77z m303 -186 c253 -128 -146 -510 -685 -654 -51 -14 -101 -25
-112 -25 -11 0 48 33 130 73 378 185 605 382 605 529 0 39 -5 52 -32 78 l-32
32 45 -7 c24 -4 60 -16 81 -26z"/>
</g>
</svg>
